# xmcd
#
# Track frame offsets:
#	150
#	14343
#	32309
#	43773
#	61826
#	75896
#	101366
#	118502
#	135493
#	154196
#	168736
#	183752
#
# Disc length: 2642 seconds
#
# Revision: 1
# Processed by: cddbd v1.4PL0 Copyright (c) Steve Scherf et al.
# Submitted via: MusicWizard 6.0.2
#
DISCID=840a500c
DTITLE=Emmylou Harris - Elite Hotel
DYEAR=1975
DGENRE=country
TTITLE0=Amarillo
TTITLE1=Together Again
TTITLE2=Feelin' Single -- Seein' Double
TTITLE3=Sin City
TTITLE4=One Of These Days
TTITLE5=Till I Gain Control Again
TTITLE6=Here, There And Everywhere
TTITLE7=Ooh! Las Vegas
TTITLE8=Sweet Dreams
TTITLE9=Jambalaya
TTITLE10=Satan's Jewel Crown
TTITLE11=Wheels
EXTD=
EXTT0=
EXTT1=
EXTT2=
EXTT3=
EXTT4=
EXTT5=
EXTT6=
EXTT7=
EXTT8=
EXTT9=
EXTT10=
EXTT11=
PLAYORDER=
